<svg width="31" height="24" viewBox="0 0 31 24" fill="none" xmlns="http://www.w3.org/2000/svg">
<path d="M1.10714 0H29.8929C30.5052 0 31 0.4875 31 1.09091V6.54545H1.43051e-06V1.09091C1.43051e-06 0.4875 0.494756 0 1.10714 0ZM31 22.9091C31 23.5125 30.5052 24 29.8929 24H1.10714C0.494756 24 1.43051e-06 23.5125 1.43051e-06 22.9091V9.54545H31V22.9091ZM10.9676 16.6364C10.9676 16.4864 10.8431 16.3636 10.6908 16.3636H4.98214C4.82991 16.3636 4.70536 16.4864 4.70536 16.6364V19.0909C4.70536 19.2409 4.82991 19.3636 4.98214 19.3636H10.6908C10.8431 19.3636 10.9676 19.2409 10.9676 19.0909V16.6364Z" fill="#383838"/>
</svg>
