<svg width="56" height="56" viewBox="0 0 56 56" fill="none" xmlns="http://www.w3.org/2000/svg">
<rect x="0.5" y="0.5" width="55" height="55" rx="14.5" fill="#383838" stroke="#00AC83"/>
<path d="M47.3523 43.2754C46.2987 40.9177 44.7698 38.7762 42.8507 36.9701C40.9374 35.1588 38.671 33.7146 36.1765 32.7173C36.1542 32.7068 36.1319 32.7015 36.1095 32.691C39.589 30.3166 41.851 26.449 41.851 22.0854C41.851 14.8568 35.6515 9 28 9C20.3485 9 14.149 14.8568 14.149 22.0854C14.149 26.449 16.411 30.3166 19.8905 32.6962C19.8681 32.7068 19.8458 32.7121 19.8235 32.7226C17.3213 33.7198 15.0761 35.1497 13.1493 36.9754C11.232 38.7829 9.70334 40.9241 8.64774 43.2807C7.61071 45.5878 7.05142 48.0613 7.00014 50.5673C6.99865 50.6236 7.0091 50.6797 7.03089 50.7321C7.05268 50.7845 7.08535 50.8323 7.12699 50.8727C7.16863 50.913 7.21839 50.945 7.27334 50.9669C7.32829 50.9888 7.38732 51 7.44695 51H10.798C11.0437 51 11.2392 50.8153 11.2448 50.5884C11.3565 46.5151 13.0879 42.7003 16.1485 39.8088C19.3152 36.8171 23.5208 35.1709 28 35.1709C32.4792 35.1709 36.6848 36.8171 39.8515 39.8088C42.9121 42.7003 44.6435 46.5151 44.7552 50.5884C44.7608 50.8206 44.9563 51 45.202 51H48.5531C48.6127 51 48.6717 50.9888 48.7267 50.9669C48.7816 50.945 48.8314 50.913 48.873 50.8727C48.9146 50.8323 48.9473 50.7845 48.9691 50.7321C48.9909 50.6797 49.0014 50.6236 48.9999 50.5673C48.944 48.0452 48.3911 45.5917 47.3523 43.2754ZM28 31.1608C25.4365 31.1608 23.0237 30.2163 21.2086 28.5015C19.3934 26.7867 18.3937 24.5073 18.3937 22.0854C18.3937 19.6636 19.3934 17.3842 21.2086 15.6693C23.0237 13.9545 25.4365 13.0101 28 13.0101C30.5635 13.0101 32.9763 13.9545 34.7914 15.6693C36.6066 17.3842 37.6063 19.6636 37.6063 22.0854C37.6063 24.5073 36.6066 26.7867 34.7914 28.5015C32.9763 30.2163 30.5635 31.1608 28 31.1608Z" fill="#00AC83"/>
</svg>
