<svg width="17" height="10" viewBox="0 0 17 10" fill="none" xmlns="http://www.w3.org/2000/svg">
<path d="M14.3948 0.443496L8.49207 6.3361L2.58933 0.443496C2.44848 0.30289 2.28127 0.191357 2.09724 0.115262C1.91322 0.0391667 1.71598 1.48152e-09 1.51679 0C1.31761 -1.48152e-09 1.12037 0.0391667 0.936342 0.115262C0.752316 0.191357 0.585106 0.30289 0.444259 0.443496C0.303411 0.584101 0.191685 0.751024 0.115459 0.934734C0.0392333 1.11844 -1.48407e-09 1.31534 0 1.51419C1.48407e-09 1.71303 0.0392333 1.90993 0.115459 2.09364C0.191685 2.27735 0.303411 2.44428 0.444259 2.58488L7.42714 9.55578C8.02046 10.1481 8.9789 10.1481 9.57221 9.55578L16.5551 2.58488C16.6961 2.44438 16.808 2.27749 16.8844 2.09377C16.9607 1.91004 17 1.71309 17 1.51419C17 1.31529 16.9607 1.11833 16.8844 0.934611C16.808 0.750887 16.6961 0.583998 16.5551 0.443496C15.9618 -0.133615 14.9881 -0.148802 14.3948 0.443496Z" fill="#383838"/>
</svg>
